<?xml version="1.0" encoding="utf-8"?>
<!-- Generator: Adobe Illustrator 16.0.0, SVG Export Plug-In . SVG Version: 6.00 Build 0)  -->
<!DOCTYPE svg PUBLIC "-//W3C//DTD SVG 1.1//EN" "http://www.w3.org/Graphics/SVG/1.1/DTD/svg11.dtd">
<svg version="1.1" xmlns="http://www.w3.org/2000/svg" xmlns:xlink="http://www.w3.org/1999/xlink" x="0px" y="0px" width="200px"
	 height="200px" viewBox="0 0 200 200" enable-background="new 0 0 200 200" xml:space="preserve">
<g id="Layer_1">
	<rect x="23" y="25" width="2" height="152"/>
</g>
<g id="Layer_2">
	<rect x="25" y="175" width="150" height="2"/>
</g>
<g id="Layer_3">
</g>
<g id="Layer_4">
	<g>
		<path d="M148.018,155.75v-4.266h1.31c0.559,0,1.007,0.172,1.345,0.514c0.338,0.344,0.507,0.786,0.507,1.329v0.583
			c0,0.545-0.169,0.988-0.507,1.328c-0.338,0.342-0.786,0.512-1.345,0.512H148.018z M148.595,151.938v3.357h0.732
			c0.395,0,0.705-0.13,0.933-0.39c0.228-0.259,0.342-0.592,0.342-0.998v-0.588c0-0.402-0.114-0.733-0.342-0.992
			c-0.228-0.26-0.538-0.39-0.933-0.39H148.595z"/>
	</g>
	<g>
		<path d="M142.547,188.748c0,0.277-0.049,0.533-0.146,0.77s-0.234,0.438-0.41,0.602l0.724,0.682l-0.396,0.379l-0.809-0.754
			c-0.109,0.045-0.224,0.078-0.342,0.102c-0.118,0.021-0.239,0.033-0.364,0.033c-0.498,0-0.903-0.172-1.214-0.516
			c-0.313-0.344-0.468-0.775-0.468-1.297v-0.76c0-0.52,0.155-0.951,0.468-1.297c0.311-0.346,0.716-0.52,1.214-0.52
			c0.516,0,0.935,0.174,1.259,0.518c0.322,0.346,0.484,0.777,0.484,1.299V188.748z M141.97,187.982c0-0.391-0.105-0.711-0.316-0.961
			s-0.494-0.375-0.85-0.375c-0.336,0-0.604,0.125-0.804,0.375c-0.201,0.25-0.301,0.57-0.301,0.961v0.766
			c0,0.395,0.1,0.717,0.301,0.967c0.199,0.25,0.468,0.375,0.804,0.375c0.357,0,0.641-0.125,0.851-0.373
			c0.21-0.25,0.315-0.572,0.315-0.969V187.982z"/>
		<path d="M145.313,190.031c-0.1,0.17-0.228,0.301-0.384,0.393s-0.337,0.137-0.542,0.137c-0.346,0-0.615-0.109-0.809-0.33
			s-0.29-0.564-0.29-1.031v-1.869h0.577v1.875c0,0.338,0.05,0.57,0.149,0.697s0.255,0.189,0.466,0.189
			c0.205,0,0.374-0.041,0.508-0.123c0.134-0.084,0.235-0.201,0.304-0.354v-2.285h0.577v3.17h-0.519L145.313,190.031z"/>
		<path d="M148.658,190.5c-0.02-0.096-0.035-0.18-0.045-0.254c-0.012-0.072-0.018-0.146-0.02-0.221
			c-0.107,0.152-0.248,0.279-0.42,0.383c-0.174,0.102-0.359,0.152-0.559,0.152c-0.33,0-0.582-0.084-0.754-0.252
			c-0.174-0.17-0.26-0.402-0.26-0.699c0-0.303,0.122-0.539,0.367-0.711c0.245-0.17,0.578-0.256,0.998-0.256h0.627v-0.314
			c0-0.186-0.057-0.332-0.17-0.439c-0.113-0.109-0.273-0.164-0.48-0.164c-0.186,0-0.337,0.049-0.453,0.143
			c-0.116,0.096-0.174,0.209-0.174,0.342h-0.551l-0.006-0.018c-0.012-0.23,0.097-0.441,0.326-0.633s0.526-0.287,0.89-0.287
			c0.359,0,0.648,0.092,0.867,0.273c0.219,0.184,0.328,0.445,0.328,0.789v1.527c0,0.113,0.006,0.223,0.018,0.328
			s0.033,0.209,0.064,0.311H148.658z M147.7,190.074c0.209,0,0.397-0.053,0.565-0.16s0.277-0.23,0.328-0.367v-0.516h-0.647
			c-0.232,0-0.419,0.059-0.558,0.176c-0.141,0.117-0.21,0.254-0.21,0.412c0,0.141,0.044,0.252,0.132,0.332
			C147.398,190.033,147.528,190.074,147.7,190.074z"/>
		<path d="M150.524,187.33l0.041,0.471c0.105-0.168,0.237-0.297,0.397-0.391c0.158-0.092,0.34-0.139,0.543-0.139
			c0.342,0,0.606,0.1,0.794,0.301c0.188,0.199,0.281,0.508,0.281,0.926v2.002h-0.577v-1.99c0-0.279-0.056-0.477-0.166-0.594
			s-0.278-0.176-0.505-0.176c-0.166,0-0.313,0.039-0.44,0.119c-0.129,0.08-0.23,0.189-0.307,0.328v2.313h-0.577v-3.17H150.524z"/>
		<path d="M154.181,186.564v0.766h0.601v0.428h-0.601v1.924c0,0.148,0.03,0.254,0.093,0.314c0.061,0.061,0.143,0.09,0.244,0.09
			c0.033,0,0.069-0.004,0.109-0.012s0.076-0.018,0.107-0.029l0.076,0.396c-0.043,0.035-0.106,0.063-0.189,0.086
			c-0.083,0.021-0.166,0.033-0.25,0.033c-0.234,0-0.421-0.07-0.56-0.211c-0.139-0.143-0.208-0.365-0.208-0.668v-1.924H153.1v-0.428
			h0.504v-0.766H154.181z"/>
		<path d="M156.117,186.518h-0.577v-0.588h0.577V186.518z M156.117,190.5h-0.577v-3.17h0.577V190.5z"/>
		<path d="M157.767,186.564v0.766h0.601v0.428h-0.601v1.924c0,0.148,0.03,0.254,0.093,0.314c0.061,0.061,0.143,0.09,0.244,0.09
			c0.033,0,0.069-0.004,0.109-0.012s0.076-0.018,0.107-0.029l0.076,0.396c-0.043,0.035-0.106,0.063-0.189,0.086
			c-0.083,0.021-0.166,0.033-0.25,0.033c-0.234,0-0.421-0.07-0.56-0.211c-0.139-0.143-0.208-0.365-0.208-0.668v-1.924h-0.504v-0.428
			h0.504v-0.766H157.767z"/>
		<path d="M160.049,189.324l0.103,0.398h0.018l0.779-2.393h0.642l-1.333,3.656c-0.08,0.213-0.194,0.398-0.345,0.557
			c-0.148,0.158-0.351,0.236-0.604,0.236c-0.047,0-0.106-0.006-0.179-0.016c-0.072-0.012-0.128-0.021-0.167-0.031l0.059-0.453
			c-0.012-0.002,0.022,0,0.104,0.006c0.08,0.006,0.132,0.008,0.153,0.008c0.123,0,0.224-0.055,0.302-0.164s0.144-0.23,0.196-0.363
			l0.138-0.33l-1.178-3.105h0.645L160.049,189.324z"/>
		<path d="M163.696,190.5v-4.266h1.31c0.559,0,1.007,0.172,1.345,0.514c0.338,0.344,0.507,0.785,0.507,1.328v0.584
			c0,0.545-0.169,0.988-0.507,1.328c-0.338,0.342-0.786,0.512-1.345,0.512H163.696z M164.273,186.688v3.357h0.732
			c0.395,0,0.705-0.129,0.933-0.389s0.342-0.592,0.342-0.998v-0.588c0-0.402-0.114-0.734-0.342-0.992
			c-0.228-0.26-0.538-0.391-0.933-0.391H164.273z"/>
		<path d="M168.855,190.561c-0.441,0-0.793-0.146-1.053-0.439c-0.262-0.295-0.392-0.676-0.392-1.145v-0.129
			c0-0.451,0.134-0.826,0.403-1.127c0.268-0.299,0.586-0.449,0.953-0.449c0.428,0,0.751,0.129,0.97,0.387s0.328,0.602,0.328,1.031
			v0.359h-2.057L168,189.064c0.006,0.303,0.083,0.553,0.231,0.748c0.148,0.197,0.356,0.295,0.624,0.295
			c0.195,0,0.366-0.027,0.514-0.084c0.147-0.055,0.275-0.133,0.383-0.23l0.226,0.375c-0.113,0.113-0.263,0.207-0.448,0.281
			S169.119,190.561,168.855,190.561z M168.768,187.725c-0.193,0-0.358,0.082-0.495,0.244s-0.221,0.367-0.252,0.611l0.006,0.016
			h1.462v-0.076c0-0.227-0.061-0.414-0.182-0.566S169.006,187.725,168.768,187.725z"/>
		<path d="M171.229,187.33l0.041,0.416c0.104-0.15,0.234-0.268,0.394-0.35c0.159-0.084,0.345-0.125,0.556-0.125
			s0.392,0.049,0.544,0.146c0.15,0.098,0.265,0.244,0.341,0.439c0.1-0.18,0.231-0.322,0.396-0.428s0.355-0.158,0.574-0.158
			c0.322,0,0.577,0.111,0.765,0.332c0.188,0.223,0.281,0.555,0.281,1v1.896h-0.577v-1.902c0-0.313-0.054-0.533-0.161-0.662
			c-0.107-0.131-0.268-0.195-0.48-0.195c-0.197,0-0.357,0.068-0.479,0.205s-0.193,0.309-0.215,0.518v0.023v2.014h-0.58v-1.902
			c0-0.297-0.056-0.514-0.166-0.65c-0.11-0.139-0.269-0.207-0.476-0.207c-0.176,0-0.32,0.035-0.434,0.107s-0.2,0.174-0.261,0.305
			v2.348h-0.577v-3.17H171.229z"/>
		<path d="M177.905,190.5c-0.02-0.096-0.035-0.18-0.045-0.254c-0.012-0.072-0.018-0.146-0.02-0.221
			c-0.107,0.152-0.248,0.279-0.42,0.383c-0.174,0.102-0.359,0.152-0.559,0.152c-0.33,0-0.582-0.084-0.754-0.252
			c-0.174-0.17-0.26-0.402-0.26-0.699c0-0.303,0.122-0.539,0.367-0.711c0.245-0.17,0.578-0.256,0.998-0.256h0.627v-0.314
			c0-0.186-0.057-0.332-0.17-0.439c-0.113-0.109-0.273-0.164-0.48-0.164c-0.186,0-0.337,0.049-0.453,0.143
			c-0.116,0.096-0.174,0.209-0.174,0.342h-0.551l-0.006-0.018c-0.012-0.23,0.097-0.441,0.326-0.633s0.526-0.287,0.89-0.287
			c0.359,0,0.648,0.092,0.867,0.273c0.219,0.184,0.328,0.445,0.328,0.789v1.527c0,0.113,0.006,0.223,0.018,0.328
			s0.033,0.209,0.064,0.311H177.905z M176.947,190.074c0.209,0,0.397-0.053,0.565-0.16s0.277-0.23,0.328-0.367v-0.516h-0.647
			c-0.232,0-0.419,0.059-0.558,0.176c-0.141,0.117-0.21,0.254-0.21,0.412c0,0.141,0.044,0.252,0.132,0.332
			C176.646,190.033,176.775,190.074,176.947,190.074z"/>
		<path d="M179.771,187.33l0.041,0.471c0.105-0.168,0.237-0.297,0.397-0.391c0.158-0.092,0.34-0.139,0.543-0.139
			c0.342,0,0.606,0.1,0.794,0.301c0.188,0.199,0.281,0.508,0.281,0.926v2.002h-0.577v-1.99c0-0.279-0.056-0.477-0.166-0.594
			s-0.278-0.176-0.505-0.176c-0.166,0-0.313,0.039-0.44,0.119c-0.129,0.08-0.23,0.189-0.307,0.328v2.313h-0.577v-3.17H179.771z"/>
		<path d="M182.534,188.973c0-0.51,0.108-0.92,0.326-1.232s0.523-0.469,0.916-0.469c0.186,0,0.35,0.033,0.494,0.102
			c0.143,0.068,0.266,0.168,0.367,0.299v-1.742h0.577v4.57h-0.472l-0.067-0.391c-0.104,0.148-0.23,0.262-0.381,0.338
			s-0.325,0.113-0.524,0.113c-0.387,0-0.689-0.139-0.908-0.42c-0.219-0.279-0.328-0.648-0.328-1.105V188.973z M183.111,189.035
			c0,0.32,0.065,0.576,0.196,0.77c0.131,0.191,0.334,0.287,0.609,0.287c0.172,0,0.316-0.039,0.434-0.117s0.213-0.188,0.287-0.328
			v-1.479c-0.074-0.131-0.171-0.234-0.289-0.313c-0.118-0.076-0.26-0.115-0.426-0.115c-0.277,0-0.482,0.113-0.613,0.342
			c-0.133,0.229-0.198,0.525-0.198,0.891V189.035z"/>
		<path d="M187.392,190.561c-0.441,0-0.793-0.146-1.053-0.439c-0.262-0.295-0.392-0.676-0.392-1.145v-0.129
			c0-0.451,0.134-0.826,0.403-1.127c0.268-0.299,0.586-0.449,0.953-0.449c0.428,0,0.751,0.129,0.97,0.387s0.328,0.602,0.328,1.031
			v0.359h-2.057l-0.009,0.016c0.006,0.303,0.083,0.553,0.231,0.748c0.148,0.197,0.356,0.295,0.624,0.295
			c0.195,0,0.366-0.027,0.514-0.084c0.147-0.055,0.275-0.133,0.383-0.23l0.226,0.375c-0.113,0.113-0.263,0.207-0.448,0.281
			S187.655,190.561,187.392,190.561z M187.304,187.725c-0.193,0-0.358,0.082-0.495,0.244s-0.221,0.367-0.252,0.611l0.006,0.016
			h1.462v-0.076c0-0.227-0.061-0.414-0.182-0.566S187.542,187.725,187.304,187.725z"/>
		<path d="M189.117,188.973c0-0.51,0.108-0.92,0.326-1.232s0.523-0.469,0.916-0.469c0.186,0,0.35,0.033,0.494,0.102
			c0.143,0.068,0.266,0.168,0.367,0.299v-1.742h0.577v4.57h-0.472l-0.067-0.391c-0.104,0.148-0.23,0.262-0.381,0.338
			s-0.325,0.113-0.524,0.113c-0.387,0-0.689-0.139-0.908-0.42c-0.219-0.279-0.328-0.648-0.328-1.105V188.973z M189.694,189.035
			c0,0.32,0.065,0.576,0.196,0.77c0.131,0.191,0.334,0.287,0.609,0.287c0.172,0,0.316-0.039,0.434-0.117s0.213-0.188,0.287-0.328
			v-1.479c-0.074-0.131-0.171-0.234-0.289-0.313c-0.118-0.076-0.26-0.115-0.426-0.115c-0.277,0-0.482,0.113-0.613,0.342
			c-0.133,0.229-0.198,0.525-0.198,0.891V189.035z"/>
	</g>
	<g>
		<path d="M4.104,17.55v1.711H3.527v-4.266h1.632c0.455,0,0.809,0.117,1.061,0.352s0.378,0.543,0.378,0.926
			c0,0.389-0.126,0.699-0.378,0.93S5.614,17.55,5.159,17.55H4.104z M4.104,17.096h1.055c0.289,0,0.505-0.078,0.647-0.232
			c0.143-0.155,0.214-0.351,0.214-0.586s-0.072-0.433-0.215-0.591c-0.144-0.158-0.359-0.237-0.646-0.237H4.104V17.096z"/>
		<path d="M8.763,16.601l-0.296-0.018c-0.152,0-0.281,0.036-0.385,0.108s-0.185,0.174-0.242,0.305v2.265H7.263v-3.17h0.516
			l0.056,0.463c0.09-0.164,0.201-0.292,0.333-0.384s0.284-0.138,0.456-0.138c0.043,0,0.084,0.003,0.123,0.01
			s0.071,0.014,0.097,0.022L8.763,16.601z"/>
		<path d="M9.943,15.279H9.366V14.69h0.577V15.279z M9.943,19.261H9.366v-3.17h0.577V19.261z"/>
		<path d="M12.12,18.868c0.191,0,0.36-0.059,0.505-0.177s0.218-0.263,0.218-0.435h0.519l0.006,0.018
			c0.01,0.273-0.112,0.517-0.365,0.729s-0.547,0.319-0.883,0.319c-0.461,0-0.813-0.15-1.058-0.451s-0.366-0.679-0.366-1.134v-0.123
			c0-0.451,0.123-0.828,0.368-1.129s0.597-0.453,1.056-0.453c0.371,0,0.674,0.109,0.91,0.328s0.349,0.487,0.341,0.806l-0.006,0.018
			h-0.521c0-0.193-0.068-0.358-0.205-0.494s-0.31-0.204-0.519-0.204c-0.303,0-0.519,0.109-0.649,0.326
			c-0.13,0.218-0.195,0.484-0.195,0.8v0.123c0,0.324,0.064,0.593,0.193,0.809C11.599,18.76,11.815,18.868,12.12,18.868z"/>
		<path d="M15.331,19.322c-0.441,0-0.792-0.147-1.053-0.441s-0.391-0.675-0.391-1.144v-0.129c0-0.451,0.134-0.827,0.403-1.126
			s0.586-0.45,0.954-0.45c0.428,0,0.751,0.129,0.97,0.387s0.328,0.602,0.328,1.031v0.36h-2.057l-0.009,0.015
			c0.006,0.304,0.083,0.554,0.231,0.75s0.356,0.293,0.624,0.293c0.195,0,0.367-0.028,0.514-0.083s0.275-0.132,0.382-0.23
			l0.226,0.375c-0.113,0.112-0.263,0.206-0.448,0.28C15.819,19.285,15.595,19.322,15.331,19.322z M15.243,16.486
			c-0.193,0-0.358,0.081-0.495,0.244s-0.221,0.367-0.252,0.612l0.006,0.015h1.462v-0.076c0-0.226-0.061-0.415-0.182-0.567
			C15.661,16.563,15.481,16.486,15.243,16.486z"/>
		<path d="M18.647,17.529c0-0.77,0.155-1.427,0.466-1.972s0.637-0.908,0.979-1.09l0.018,0.003l0.111,0.34
			c-0.268,0.209-0.5,0.544-0.699,1.005s-0.297,1.03-0.297,1.708v0.038c0,0.678,0.099,1.247,0.296,1.708s0.431,0.805,0.7,1.031
			l-0.111,0.316h-0.018c-0.342-0.182-0.668-0.544-0.979-1.088s-0.466-1.202-0.466-1.973V17.529z"/>
		<path d="M22.734,18.159c0-0.174-0.063-0.323-0.188-0.448s-0.33-0.236-0.615-0.334c-0.395-0.119-0.692-0.278-0.894-0.478
			s-0.302-0.465-0.302-0.797c0-0.322,0.092-0.585,0.277-0.788s0.439-0.325,0.763-0.366v-0.647h0.463v0.65
			c0.328,0.047,0.583,0.187,0.763,0.42s0.271,0.546,0.271,0.939h-0.574c0-0.266-0.062-0.48-0.185-0.645s-0.294-0.246-0.513-0.246
			c-0.23,0-0.403,0.06-0.517,0.18s-0.171,0.285-0.171,0.494c0,0.189,0.059,0.343,0.177,0.46s0.332,0.229,0.64,0.334
			c0.4,0.129,0.697,0.29,0.891,0.482s0.29,0.454,0.29,0.784c0,0.336-0.101,0.603-0.302,0.801s-0.478,0.316-0.829,0.353v0.563h-0.46
			v-0.56c-0.336-0.035-0.611-0.158-0.826-0.368s-0.318-0.518-0.311-0.924l0.006-0.015h0.557c0,0.301,0.076,0.515,0.227,0.643
			s0.337,0.192,0.558,0.192c0.252,0,0.449-0.06,0.59-0.18S22.734,18.372,22.734,18.159z"/>
		<path d="M25.219,17.556c0,0.771-0.156,1.429-0.467,1.973s-0.637,0.907-0.977,1.088h-0.018l-0.111-0.316
			c0.264-0.205,0.496-0.542,0.696-1.012s0.3-1.045,0.3-1.727v-0.038c0-0.668-0.103-1.238-0.309-1.709s-0.435-0.815-0.687-1.03
			l0.111-0.316h0.018c0.34,0.182,0.666,0.545,0.977,1.09s0.467,1.202,0.467,1.972V17.556z"/>
	</g>
	<g>
		<path d="M29.154,13.753V9.488h1.31c0.559,0,1.007,0.171,1.345,0.514s0.507,0.786,0.507,1.329v0.583
			c0,0.545-0.169,0.988-0.507,1.329s-0.786,0.511-1.345,0.511H29.154z M29.731,9.942v3.357h0.732c0.395,0,0.706-0.13,0.933-0.389
			c0.228-0.26,0.341-0.592,0.341-0.999v-0.588c0-0.402-0.114-0.733-0.341-0.993c-0.228-0.259-0.539-0.389-0.933-0.389H29.731z"/>
		<path d="M34.313,13.815c-0.441,0-0.792-0.147-1.053-0.441s-0.391-0.675-0.391-1.144v-0.129c0-0.451,0.134-0.827,0.403-1.126
			s0.586-0.45,0.954-0.45c0.428,0,0.751,0.129,0.97,0.387s0.328,0.602,0.328,1.031v0.36h-2.057l-0.009,0.015
			c0.006,0.304,0.083,0.554,0.231,0.75s0.356,0.293,0.624,0.293c0.195,0,0.367-0.028,0.514-0.083s0.275-0.132,0.382-0.23
			l0.226,0.375c-0.113,0.112-0.263,0.206-0.448,0.28C34.802,13.778,34.577,13.815,34.313,13.815z M34.226,10.979
			c-0.193,0-0.358,0.081-0.495,0.244s-0.221,0.367-0.252,0.612l0.006,0.015h1.462v-0.076c0-0.226-0.061-0.415-0.182-0.567
			C34.644,11.055,34.464,10.979,34.226,10.979z"/>
		<path d="M36.687,10.583L36.728,11c0.104-0.15,0.235-0.267,0.394-0.35s0.344-0.125,0.555-0.125s0.392,0.049,0.543,0.146
			s0.265,0.244,0.341,0.439c0.1-0.18,0.231-0.322,0.396-0.428s0.355-0.158,0.574-0.158c0.322,0,0.577,0.111,0.765,0.333
			s0.281,0.555,0.281,1v1.896H40v-1.901c0-0.313-0.054-0.534-0.161-0.664s-0.268-0.195-0.48-0.195c-0.197,0-0.357,0.068-0.479,0.205
			s-0.194,0.31-0.215,0.519v0.023v2.013h-0.58v-1.901c0-0.297-0.055-0.514-0.166-0.652s-0.269-0.207-0.476-0.207
			c-0.176,0-0.32,0.036-0.434,0.108s-0.2,0.174-0.261,0.305v2.347h-0.577v-3.17H36.687z"/>
		<path d="M43.363,13.753c-0.02-0.096-0.035-0.18-0.045-0.253s-0.017-0.147-0.019-0.221c-0.107,0.152-0.248,0.28-0.42,0.382
			s-0.359,0.154-0.558,0.154c-0.33,0-0.582-0.084-0.754-0.253s-0.259-0.402-0.259-0.699c0-0.303,0.123-0.54,0.368-0.71
			s0.578-0.256,0.998-0.256h0.627v-0.313c0-0.186-0.057-0.333-0.17-0.441s-0.273-0.163-0.48-0.163c-0.186,0-0.336,0.047-0.453,0.142
			s-0.174,0.208-0.174,0.341h-0.551l-0.006-0.018c-0.012-0.23,0.097-0.441,0.327-0.633s0.526-0.287,0.889-0.287
			c0.359,0,0.648,0.091,0.867,0.274s0.328,0.446,0.328,0.79v1.526c0,0.113,0.006,0.223,0.018,0.328s0.033,0.209,0.064,0.311H43.363z
			 M42.405,13.329c0.209,0,0.397-0.054,0.565-0.161s0.277-0.23,0.328-0.368v-0.514h-0.647c-0.232,0-0.418,0.059-0.558,0.175
			s-0.209,0.254-0.209,0.412c0,0.14,0.044,0.251,0.132,0.333C42.104,13.288,42.233,13.329,42.405,13.329z"/>
		<path d="M45.229,10.583l0.041,0.472c0.105-0.168,0.238-0.298,0.397-0.391s0.34-0.139,0.543-0.139c0.342,0,0.606,0.1,0.794,0.3
			s0.281,0.509,0.281,0.927v2.001h-0.577v-1.989c0-0.279-0.055-0.478-0.166-0.595s-0.279-0.176-0.505-0.176
			c-0.166,0-0.313,0.04-0.441,0.12s-0.23,0.189-0.306,0.328v2.312h-0.577v-3.17H45.229z"/>
		<path d="M47.992,12.227c0-0.51,0.109-0.921,0.327-1.233s0.523-0.469,0.916-0.469c0.186,0,0.35,0.034,0.494,0.103
			s0.266,0.168,0.368,0.299V9.183h0.577v4.57h-0.472l-0.067-0.39c-0.104,0.148-0.23,0.261-0.381,0.337s-0.325,0.114-0.524,0.114
			c-0.387,0-0.689-0.14-0.908-0.42s-0.328-0.649-0.328-1.106V12.227z M48.569,12.289c0,0.32,0.065,0.577,0.196,0.769
			s0.334,0.289,0.609,0.289c0.172,0,0.316-0.039,0.434-0.117s0.213-0.188,0.287-0.328v-1.479c-0.074-0.131-0.17-0.235-0.289-0.312
			s-0.26-0.116-0.426-0.116c-0.277,0-0.482,0.114-0.614,0.343s-0.198,0.525-0.198,0.891V12.289z"/>
		<path d="M56.148,12.385l0.006,0.018c0.008,0.4-0.133,0.736-0.422,1.006s-0.671,0.406-1.146,0.406
			c-0.482,0-0.875-0.171-1.179-0.513s-0.456-0.775-0.456-1.301v-0.759c0-0.525,0.152-0.959,0.456-1.302s0.697-0.514,1.179-0.514
			s0.866,0.128,1.151,0.385s0.424,0.597,0.416,1.021l-0.006,0.018h-0.554c0-0.299-0.088-0.535-0.264-0.709S54.907,9.88,54.587,9.88
			c-0.322,0-0.579,0.13-0.771,0.389c-0.191,0.26-0.287,0.582-0.287,0.966V12c0,0.389,0.096,0.712,0.287,0.972
			c0.191,0.259,0.448,0.389,0.771,0.389c0.32,0,0.568-0.086,0.744-0.259s0.264-0.412,0.264-0.716H56.148z"/>
		<path d="M58.838,13.285c-0.1,0.17-0.228,0.301-0.384,0.393s-0.337,0.138-0.542,0.138c-0.346,0-0.615-0.11-0.809-0.331
			s-0.29-0.564-0.29-1.031v-1.869h0.577v1.875c0,0.338,0.05,0.57,0.149,0.697s0.255,0.19,0.466,0.19
			c0.205,0,0.375-0.042,0.508-0.125s0.235-0.201,0.303-0.353v-2.285h0.577v3.17h-0.519L58.838,13.285z"/>
		<path d="M61.735,11.093l-0.296-0.018c-0.152,0-0.281,0.036-0.385,0.108s-0.185,0.174-0.242,0.305v2.265h-0.577v-3.17h0.516
			l0.056,0.463c0.09-0.164,0.201-0.292,0.333-0.384s0.284-0.138,0.456-0.138c0.043,0,0.084,0.003,0.123,0.01
			s0.071,0.014,0.097,0.022L61.735,11.093z"/>
		<path d="M63.402,12.819l0.05,0.223h0.018l0.056-0.223l0.729-2.235h0.589l-1.166,3.17h-0.437l-1.181-3.17h0.592L63.402,12.819z"/>
		<path d="M66.64,13.815c-0.441,0-0.792-0.147-1.053-0.441s-0.391-0.675-0.391-1.144v-0.129c0-0.451,0.134-0.827,0.403-1.126
			s0.586-0.45,0.954-0.45c0.428,0,0.751,0.129,0.97,0.387s0.328,0.602,0.328,1.031v0.36h-2.057l-0.009,0.015
			c0.006,0.304,0.083,0.554,0.231,0.75s0.356,0.293,0.624,0.293c0.195,0,0.367-0.028,0.514-0.083s0.275-0.132,0.382-0.23
			l0.226,0.375c-0.113,0.112-0.263,0.206-0.448,0.28C67.128,13.778,66.903,13.815,66.64,13.815z M66.552,10.979
			c-0.193,0-0.358,0.081-0.495,0.244s-0.221,0.367-0.252,0.612l0.006,0.015h1.462v-0.076c0-0.226-0.061-0.415-0.182-0.567
			C66.97,11.055,66.79,10.979,66.552,10.979z"/>
		<path d="M70.229,13.753v-2.742h-0.495v-0.428h0.495v-0.401c0-0.338,0.088-0.599,0.265-0.784s0.423-0.277,0.74-0.277
			c0.066,0,0.133,0.005,0.201,0.016s0.142,0.026,0.224,0.045l-0.07,0.439c-0.035-0.008-0.078-0.015-0.127-0.021
			s-0.102-0.009-0.157-0.009c-0.168,0-0.293,0.05-0.375,0.151s-0.123,0.247-0.123,0.438v0.401h0.659v0.428h-0.659v2.742H70.229z"/>
		<path d="M71.925,12.139c0-0.469,0.127-0.855,0.381-1.159s0.599-0.456,1.034-0.456c0.439,0,0.787,0.151,1.042,0.454
			s0.382,0.689,0.382,1.16v0.064c0,0.473-0.127,0.859-0.381,1.16s-0.6,0.451-1.037,0.451s-0.784-0.151-1.039-0.453
			s-0.382-0.688-0.382-1.159V12.139z M72.502,12.202c0,0.335,0.071,0.612,0.212,0.831c0.142,0.218,0.352,0.328,0.631,0.328
			c0.275,0,0.484-0.109,0.627-0.328c0.143-0.219,0.214-0.496,0.214-0.831v-0.064c0-0.332-0.072-0.607-0.215-0.828
			c-0.144-0.22-0.354-0.331-0.631-0.331c-0.275,0-0.484,0.11-0.625,0.331c-0.142,0.221-0.212,0.497-0.212,0.828V12.202z"/>
		<path d="M76.97,11.093l-0.296-0.018c-0.152,0-0.281,0.036-0.385,0.108s-0.185,0.174-0.242,0.305v2.265H75.47v-3.17h0.516
			l0.056,0.463c0.09-0.164,0.201-0.292,0.333-0.384s0.284-0.138,0.456-0.138c0.043,0,0.084,0.003,0.123,0.01
			s0.071,0.014,0.097,0.022L76.97,11.093z"/>
		<path d="M80.843,9.488h0.577v3.085c0,0.381-0.121,0.683-0.362,0.907s-0.554,0.335-0.939,0.335c-0.41,0-0.736-0.104-0.979-0.313
			s-0.358-0.512-0.349-0.908l0.006-0.018h0.554c0,0.264,0.067,0.46,0.201,0.59s0.323,0.195,0.567,0.195
			c0.213,0,0.387-0.072,0.521-0.215c0.135-0.143,0.202-0.335,0.202-0.575V9.488z"/>
		<path d="M84.276,13.753c-0.02-0.096-0.035-0.18-0.045-0.253s-0.017-0.147-0.019-0.221c-0.107,0.152-0.248,0.28-0.42,0.382
			s-0.359,0.154-0.558,0.154c-0.33,0-0.582-0.084-0.754-0.253s-0.259-0.402-0.259-0.699c0-0.303,0.123-0.54,0.368-0.71
			s0.578-0.256,0.998-0.256h0.627v-0.313c0-0.186-0.057-0.333-0.17-0.441s-0.273-0.163-0.48-0.163c-0.186,0-0.336,0.047-0.453,0.142
			s-0.174,0.208-0.174,0.341h-0.551l-0.006-0.018c-0.012-0.23,0.097-0.441,0.327-0.633s0.526-0.287,0.889-0.287
			c0.359,0,0.648,0.091,0.867,0.274s0.328,0.446,0.328,0.79v1.526c0,0.113,0.006,0.223,0.018,0.328s0.033,0.209,0.064,0.311H84.276z
			 M83.318,13.329c0.209,0,0.397-0.054,0.565-0.161s0.277-0.23,0.328-0.368v-0.514h-0.647c-0.232,0-0.418,0.059-0.558,0.175
			s-0.209,0.254-0.209,0.412c0,0.14,0.044,0.251,0.132,0.333C83.017,13.288,83.146,13.329,83.318,13.329z"/>
		<path d="M86.916,13.361c0.191,0,0.36-0.059,0.505-0.177s0.218-0.263,0.218-0.435h0.519l0.006,0.018
			c0.01,0.273-0.112,0.517-0.365,0.729s-0.547,0.319-0.883,0.319c-0.461,0-0.813-0.15-1.058-0.451s-0.366-0.679-0.366-1.134v-0.123
			c0-0.451,0.123-0.828,0.368-1.129s0.597-0.453,1.056-0.453c0.371,0,0.674,0.109,0.91,0.328s0.349,0.487,0.341,0.806l-0.006,0.018
			H87.64c0-0.193-0.068-0.358-0.205-0.494s-0.31-0.204-0.519-0.204c-0.303,0-0.519,0.109-0.649,0.326
			c-0.13,0.218-0.195,0.484-0.195,0.8v0.123c0,0.324,0.064,0.593,0.193,0.809C86.395,13.253,86.611,13.361,86.916,13.361z"/>
		<path d="M88.677,12.139c0-0.469,0.127-0.855,0.381-1.159s0.599-0.456,1.034-0.456c0.439,0,0.787,0.151,1.042,0.454
			s0.382,0.689,0.382,1.16v0.064c0,0.473-0.127,0.859-0.381,1.16s-0.6,0.451-1.037,0.451s-0.784-0.151-1.039-0.453
			s-0.382-0.688-0.382-1.159V12.139z M89.254,12.202c0,0.335,0.071,0.612,0.212,0.831c0.142,0.218,0.352,0.328,0.631,0.328
			c0.275,0,0.484-0.109,0.627-0.328c0.143-0.219,0.214-0.496,0.214-0.831v-0.064c0-0.332-0.072-0.607-0.215-0.828
			c-0.144-0.22-0.354-0.331-0.631-0.331c-0.275,0-0.484,0.11-0.625,0.331c-0.142,0.221-0.212,0.497-0.212,0.828V12.202z"/>
		<path d="M94.929,12.289c0,0.457-0.11,0.826-0.33,1.106s-0.522,0.42-0.907,0.42c-0.209,0-0.391-0.041-0.545-0.122
			s-0.282-0.201-0.384-0.359l-0.07,0.419h-0.472v-4.57h0.577v1.775c0.1-0.141,0.223-0.248,0.371-0.322s0.32-0.111,0.517-0.111
			c0.391,0,0.695,0.156,0.914,0.469s0.328,0.724,0.328,1.233V12.289z M94.352,12.227c0-0.363-0.067-0.66-0.201-0.889
			s-0.337-0.344-0.611-0.344c-0.178,0-0.328,0.043-0.45,0.13s-0.219,0.204-0.292,0.35v1.374c0.074,0.156,0.171,0.278,0.292,0.366
			s0.272,0.132,0.456,0.132c0.271,0,0.474-0.097,0.606-0.29s0.199-0.449,0.199-0.768V12.227z"/>
		<path d="M97.475,12.91c0-0.127-0.049-0.231-0.145-0.313c-0.098-0.082-0.28-0.153-0.55-0.214c-0.385-0.084-0.675-0.197-0.868-0.341
			c-0.195-0.143-0.292-0.339-0.292-0.586c0-0.257,0.109-0.477,0.328-0.658c0.219-0.181,0.504-0.272,0.855-0.272
			c0.369,0,0.662,0.095,0.88,0.284s0.322,0.42,0.313,0.691l-0.006,0.018h-0.551c0-0.139-0.059-0.263-0.174-0.374
			c-0.117-0.11-0.271-0.166-0.462-0.166c-0.205,0-0.357,0.045-0.457,0.135s-0.149,0.198-0.149,0.325
			c0,0.125,0.044,0.224,0.132,0.296s0.267,0.137,0.536,0.193c0.4,0.086,0.698,0.203,0.894,0.35s0.293,0.345,0.293,0.593
			c0,0.281-0.114,0.509-0.341,0.683c-0.229,0.174-0.525,0.261-0.893,0.261c-0.404,0-0.723-0.103-0.955-0.308
			s-0.343-0.444-0.331-0.718l0.006-0.018h0.551c0.01,0.204,0.086,0.353,0.229,0.447c0.143,0.095,0.31,0.142,0.501,0.142
			c0.205,0,0.365-0.042,0.482-0.125C97.416,13.153,97.475,13.044,97.475,12.91z"/>
		<path d="M100.369,13.753V9.488h1.31c0.559,0,1.007,0.171,1.345,0.514s0.507,0.786,0.507,1.329v0.583
			c0,0.545-0.169,0.988-0.507,1.329s-0.786,0.511-1.345,0.511H100.369z M100.946,9.942v3.357h0.732c0.395,0,0.705-0.13,0.933-0.389
			c0.228-0.26,0.342-0.592,0.342-0.999v-0.588c0-0.402-0.114-0.733-0.342-0.993c-0.228-0.259-0.538-0.389-0.933-0.389H100.946z"/>
		<path d="M105.528,13.815c-0.441,0-0.793-0.147-1.053-0.441c-0.262-0.294-0.392-0.675-0.392-1.144v-0.129
			c0-0.451,0.134-0.827,0.403-1.126c0.268-0.3,0.586-0.45,0.953-0.45c0.428,0,0.751,0.129,0.97,0.387s0.328,0.602,0.328,1.031v0.36
			h-2.057l-0.009,0.015c0.006,0.304,0.083,0.554,0.231,0.75s0.356,0.293,0.624,0.293c0.195,0,0.366-0.028,0.514-0.083
			s0.275-0.132,0.383-0.23l0.226,0.375c-0.113,0.112-0.263,0.206-0.448,0.28C106.017,13.778,105.792,13.815,105.528,13.815z
			 M105.44,10.979c-0.193,0-0.358,0.081-0.495,0.244s-0.221,0.367-0.252,0.612l0.006,0.015h1.462v-0.076
			c0-0.226-0.061-0.415-0.182-0.567C105.858,11.055,105.679,10.979,105.44,10.979z"/>
		<path d="M107.901,10.583L107.942,11c0.104-0.15,0.234-0.267,0.394-0.35s0.345-0.125,0.556-0.125s0.392,0.049,0.544,0.146
			c0.15,0.098,0.265,0.244,0.341,0.439c0.1-0.18,0.231-0.322,0.396-0.428s0.355-0.158,0.574-0.158c0.322,0,0.577,0.111,0.765,0.333
			s0.281,0.555,0.281,1v1.896h-0.577v-1.901c0-0.313-0.054-0.534-0.161-0.664s-0.268-0.195-0.48-0.195
			c-0.197,0-0.357,0.068-0.479,0.205s-0.193,0.31-0.215,0.519v0.023v2.013h-0.58v-1.901c0-0.297-0.056-0.514-0.166-0.652
			s-0.269-0.207-0.476-0.207c-0.176,0-0.32,0.036-0.434,0.108s-0.2,0.174-0.261,0.305v2.347h-0.577v-3.17H107.901z"/>
		<path d="M114.578,13.753c-0.02-0.096-0.035-0.18-0.045-0.253c-0.012-0.073-0.018-0.147-0.02-0.221
			c-0.107,0.152-0.248,0.28-0.42,0.382c-0.174,0.103-0.359,0.154-0.559,0.154c-0.33,0-0.582-0.084-0.754-0.253
			c-0.174-0.169-0.26-0.402-0.26-0.699c0-0.303,0.122-0.54,0.367-0.71s0.578-0.256,0.998-0.256h0.627v-0.313
			c0-0.186-0.057-0.333-0.17-0.441s-0.273-0.163-0.48-0.163c-0.186,0-0.337,0.047-0.453,0.142s-0.174,0.208-0.174,0.341h-0.551
			l-0.006-0.018c-0.012-0.23,0.097-0.441,0.326-0.633s0.526-0.287,0.89-0.287c0.359,0,0.648,0.091,0.867,0.274
			s0.328,0.446,0.328,0.79v1.526c0,0.113,0.006,0.223,0.018,0.328s0.033,0.209,0.064,0.311H114.578z M113.62,13.329
			c0.209,0,0.397-0.054,0.565-0.161s0.277-0.23,0.328-0.368v-0.514h-0.647c-0.232,0-0.419,0.059-0.558,0.175
			c-0.141,0.117-0.21,0.254-0.21,0.412c0,0.14,0.044,0.251,0.132,0.333C113.318,13.288,113.448,13.329,113.62,13.329z"/>
		<path d="M116.444,10.583l0.041,0.472c0.105-0.168,0.237-0.298,0.397-0.391c0.158-0.093,0.34-0.139,0.543-0.139
			c0.342,0,0.606,0.1,0.794,0.3s0.281,0.509,0.281,0.927v2.001h-0.577v-1.989c0-0.279-0.056-0.478-0.166-0.595
			s-0.278-0.176-0.505-0.176c-0.166,0-0.313,0.04-0.44,0.12c-0.129,0.08-0.23,0.189-0.307,0.328v2.312h-0.577v-3.17H116.444z"/>
		<path d="M119.207,12.227c0-0.51,0.108-0.921,0.326-1.233s0.523-0.469,0.916-0.469c0.186,0,0.35,0.034,0.494,0.103
			c0.143,0.068,0.266,0.168,0.367,0.299V9.183h0.577v4.57h-0.472l-0.067-0.39c-0.104,0.148-0.23,0.261-0.381,0.337
			s-0.325,0.114-0.524,0.114c-0.387,0-0.689-0.14-0.908-0.42s-0.328-0.649-0.328-1.106V12.227z M119.784,12.289
			c0,0.32,0.065,0.577,0.196,0.769s0.334,0.289,0.609,0.289c0.172,0,0.316-0.039,0.434-0.117s0.213-0.188,0.287-0.328v-1.479
			c-0.074-0.131-0.171-0.235-0.289-0.312s-0.26-0.116-0.426-0.116c-0.277,0-0.482,0.114-0.613,0.343
			c-0.133,0.229-0.198,0.525-0.198,0.891V12.289z"/>
		<path d="M124.105,12.139c0-0.469,0.127-0.855,0.381-1.159s0.599-0.456,1.034-0.456c0.439,0,0.787,0.151,1.041,0.454
			c0.256,0.303,0.383,0.689,0.383,1.16v0.064c0,0.473-0.127,0.859-0.381,1.16s-0.6,0.451-1.037,0.451s-0.783-0.151-1.039-0.453
			c-0.254-0.302-0.382-0.688-0.382-1.159V12.139z M124.683,12.202c0,0.335,0.07,0.612,0.213,0.831
			c0.141,0.218,0.352,0.328,0.631,0.328c0.275,0,0.484-0.109,0.627-0.328c0.143-0.219,0.214-0.496,0.214-0.831v-0.064
			c0-0.332-0.071-0.607-0.216-0.828c-0.143-0.22-0.354-0.331-0.631-0.331c-0.275,0-0.484,0.11-0.625,0.331
			c-0.143,0.221-0.213,0.497-0.213,0.828V12.202z"/>
		<path d="M127.891,13.753v-2.742h-0.495v-0.428h0.495v-0.401c0-0.338,0.088-0.599,0.265-0.784s0.424-0.277,0.74-0.277
			c0.066,0,0.133,0.005,0.201,0.016c0.066,0.011,0.142,0.026,0.224,0.045l-0.07,0.439c-0.035-0.008-0.077-0.015-0.128-0.021
			c-0.049-0.006-0.102-0.009-0.156-0.009c-0.168,0-0.293,0.05-0.375,0.151s-0.123,0.247-0.123,0.438v0.401h0.659v0.428h-0.659v2.742
			H127.891z"/>
		<path d="M134.412,13.188c-0.102,0.156-0.278,0.3-0.528,0.431c-0.252,0.131-0.576,0.196-0.975,0.196
			c-0.51,0-0.932-0.163-1.264-0.489c-0.334-0.326-0.5-0.748-0.5-1.266v-0.879c0-0.518,0.155-0.939,0.466-1.266
			s0.711-0.489,1.201-0.489c0.488,0,0.872,0.12,1.151,0.36s0.422,0.55,0.428,0.929l-0.006,0.018h-0.551
			c-0.018-0.248-0.112-0.452-0.283-0.612s-0.417-0.24-0.739-0.24c-0.326,0-0.589,0.122-0.788,0.366
			c-0.199,0.244-0.299,0.553-0.299,0.928v0.884c0,0.379,0.111,0.69,0.334,0.936c0.223,0.245,0.506,0.367,0.85,0.367
			c0.242,0,0.44-0.032,0.595-0.097c0.154-0.064,0.265-0.137,0.331-0.219v-0.968H132.9v-0.454h1.512V13.188z"/>
		<path d="M137.315,13.285c-0.1,0.17-0.228,0.301-0.384,0.393s-0.337,0.138-0.542,0.138c-0.346,0-0.615-0.11-0.809-0.331
			s-0.29-0.564-0.29-1.031v-1.869h0.577v1.875c0,0.338,0.05,0.57,0.149,0.697s0.255,0.19,0.466,0.19
			c0.205,0,0.374-0.042,0.508-0.125s0.235-0.201,0.304-0.353v-2.285h0.577v3.17h-0.519L137.315,13.285z"/>
		<path d="M139.337,9.772h-0.577V9.183h0.577V9.772z M139.337,13.753h-0.577v-3.17h0.577V13.753z"/>
		<path d="M140.986,9.819v0.765h0.601v0.428h-0.601v1.925c0,0.148,0.03,0.253,0.093,0.313c0.061,0.061,0.143,0.091,0.244,0.091
			c0.033,0,0.069-0.004,0.109-0.012s0.076-0.018,0.107-0.029l0.076,0.396c-0.043,0.035-0.106,0.064-0.189,0.086
			s-0.166,0.034-0.25,0.034c-0.234,0-0.421-0.071-0.56-0.212s-0.208-0.364-0.208-0.667v-1.925h-0.504v-0.428h0.504V9.819H140.986z"
			/>
		<path d="M144.247,13.753c-0.02-0.096-0.035-0.18-0.045-0.253c-0.012-0.073-0.018-0.147-0.02-0.221
			c-0.107,0.152-0.248,0.28-0.42,0.382c-0.174,0.103-0.359,0.154-0.559,0.154c-0.33,0-0.582-0.084-0.754-0.253
			c-0.174-0.169-0.26-0.402-0.26-0.699c0-0.303,0.122-0.54,0.367-0.71s0.578-0.256,0.998-0.256h0.627v-0.313
			c0-0.186-0.057-0.333-0.17-0.441s-0.273-0.163-0.48-0.163c-0.186,0-0.337,0.047-0.453,0.142s-0.174,0.208-0.174,0.341h-0.551
			l-0.006-0.018c-0.012-0.23,0.097-0.441,0.326-0.633s0.526-0.287,0.89-0.287c0.359,0,0.648,0.091,0.867,0.274
			s0.328,0.446,0.328,0.79v1.526c0,0.113,0.006,0.223,0.018,0.328s0.033,0.209,0.064,0.311H144.247z M143.289,13.329
			c0.209,0,0.397-0.054,0.565-0.161s0.277-0.23,0.328-0.368v-0.514h-0.647c-0.232,0-0.419,0.059-0.558,0.175
			c-0.141,0.117-0.21,0.254-0.21,0.412c0,0.14,0.044,0.251,0.132,0.333C142.987,13.288,143.117,13.329,143.289,13.329z"/>
		<path d="M147.098,11.093l-0.296-0.018c-0.152,0-0.281,0.036-0.385,0.108c-0.105,0.072-0.186,0.174-0.242,0.305v2.265h-0.577v-3.17
			h0.516l0.056,0.463c0.09-0.164,0.201-0.292,0.332-0.384c0.133-0.092,0.284-0.138,0.456-0.138c0.043,0,0.084,0.003,0.123,0.01
			s0.071,0.014,0.097,0.022L147.098,11.093z"/>
		<path d="M149.831,13.299h2.019v0.454h-2.596V9.488h0.577V13.299z"/>
		<path d="M153.701,13.815c-0.441,0-0.793-0.147-1.053-0.441c-0.262-0.294-0.392-0.675-0.392-1.144v-0.129
			c0-0.451,0.134-0.827,0.403-1.126c0.268-0.3,0.586-0.45,0.953-0.45c0.428,0,0.751,0.129,0.97,0.387s0.328,0.602,0.328,1.031v0.36
			h-2.057l-0.009,0.015c0.006,0.304,0.083,0.554,0.231,0.75s0.356,0.293,0.624,0.293c0.195,0,0.366-0.028,0.514-0.083
			s0.275-0.132,0.383-0.23l0.226,0.375c-0.113,0.112-0.263,0.206-0.448,0.28C154.189,13.778,153.965,13.815,153.701,13.815z
			 M153.613,10.979c-0.193,0-0.358,0.081-0.495,0.244s-0.221,0.367-0.252,0.612l0.006,0.015h1.462v-0.076
			c0-0.226-0.061-0.415-0.182-0.567C154.031,11.055,153.852,10.979,153.613,10.979z"/>
		<path d="M157.401,12.91c0-0.127-0.049-0.231-0.145-0.313c-0.098-0.082-0.28-0.153-0.55-0.214
			c-0.385-0.084-0.675-0.197-0.868-0.341c-0.195-0.143-0.292-0.339-0.292-0.586c0-0.257,0.109-0.477,0.328-0.658
			c0.219-0.181,0.504-0.272,0.855-0.272c0.369,0,0.662,0.095,0.88,0.284s0.322,0.42,0.313,0.691l-0.006,0.018h-0.551
			c0-0.139-0.059-0.263-0.174-0.374c-0.117-0.11-0.271-0.166-0.462-0.166c-0.205,0-0.357,0.045-0.457,0.135
			s-0.149,0.198-0.149,0.325c0,0.125,0.044,0.224,0.132,0.296s0.267,0.137,0.536,0.193c0.4,0.086,0.698,0.203,0.894,0.35
			s0.293,0.345,0.293,0.593c0,0.281-0.114,0.509-0.341,0.683c-0.229,0.174-0.525,0.261-0.893,0.261
			c-0.404,0-0.723-0.103-0.955-0.308s-0.343-0.444-0.331-0.718l0.006-0.018h0.551c0.01,0.204,0.086,0.353,0.229,0.447
			c0.143,0.095,0.31,0.142,0.501,0.142c0.205,0,0.365-0.042,0.482-0.125C157.343,13.153,157.401,13.044,157.401,12.91z"/>
		<path d="M160.539,12.91c0-0.127-0.049-0.231-0.145-0.313c-0.098-0.082-0.28-0.153-0.55-0.214
			c-0.385-0.084-0.675-0.197-0.868-0.341c-0.195-0.143-0.292-0.339-0.292-0.586c0-0.257,0.109-0.477,0.328-0.658
			c0.219-0.181,0.504-0.272,0.855-0.272c0.369,0,0.662,0.095,0.88,0.284s0.322,0.42,0.313,0.691l-0.006,0.018h-0.551
			c0-0.139-0.059-0.263-0.174-0.374c-0.117-0.11-0.271-0.166-0.462-0.166c-0.205,0-0.357,0.045-0.457,0.135
			s-0.149,0.198-0.149,0.325c0,0.125,0.044,0.224,0.132,0.296s0.267,0.137,0.536,0.193c0.4,0.086,0.698,0.203,0.894,0.35
			s0.293,0.345,0.293,0.593c0,0.281-0.114,0.509-0.341,0.683c-0.229,0.174-0.525,0.261-0.893,0.261
			c-0.404,0-0.723-0.103-0.955-0.308s-0.343-0.444-0.331-0.718l0.006-0.018h0.551c0.01,0.204,0.086,0.353,0.229,0.447
			c0.143,0.095,0.31,0.142,0.501,0.142c0.205,0,0.365-0.042,0.482-0.125C160.48,13.153,160.539,13.044,160.539,12.91z"/>
		<path d="M161.699,12.139c0-0.469,0.127-0.855,0.381-1.159s0.599-0.456,1.034-0.456c0.439,0,0.787,0.151,1.041,0.454
			c0.256,0.303,0.383,0.689,0.383,1.16v0.064c0,0.473-0.127,0.859-0.381,1.16s-0.6,0.451-1.037,0.451s-0.783-0.151-1.039-0.453
			c-0.254-0.302-0.382-0.688-0.382-1.159V12.139z M162.276,12.202c0,0.335,0.07,0.612,0.213,0.831
			c0.141,0.218,0.352,0.328,0.631,0.328c0.275,0,0.484-0.109,0.627-0.328c0.143-0.219,0.214-0.496,0.214-0.831v-0.064
			c0-0.332-0.071-0.607-0.216-0.828c-0.143-0.22-0.354-0.331-0.631-0.331c-0.275,0-0.484,0.11-0.625,0.331
			c-0.143,0.221-0.213,0.497-0.213,0.828V12.202z"/>
		<path d="M165.76,10.583l0.041,0.472c0.105-0.168,0.237-0.298,0.397-0.391c0.158-0.093,0.34-0.139,0.543-0.139
			c0.342,0,0.606,0.1,0.794,0.3s0.281,0.509,0.281,0.927v2.001h-0.577v-1.989c0-0.279-0.056-0.478-0.166-0.595
			s-0.278-0.176-0.505-0.176c-0.166,0-0.313,0.04-0.44,0.12c-0.129,0.08-0.23,0.189-0.307,0.328v2.312h-0.577v-3.17H165.76z"/>
		<path d="M170.497,12.91c0-0.127-0.049-0.231-0.145-0.313c-0.098-0.082-0.28-0.153-0.55-0.214
			c-0.385-0.084-0.675-0.197-0.868-0.341c-0.195-0.143-0.292-0.339-0.292-0.586c0-0.257,0.109-0.477,0.328-0.658
			c0.219-0.181,0.504-0.272,0.855-0.272c0.369,0,0.662,0.095,0.88,0.284s0.322,0.42,0.313,0.691l-0.006,0.018h-0.551
			c0-0.139-0.059-0.263-0.174-0.374c-0.117-0.11-0.271-0.166-0.462-0.166c-0.205,0-0.357,0.045-0.457,0.135
			s-0.149,0.198-0.149,0.325c0,0.125,0.044,0.224,0.132,0.296s0.267,0.137,0.536,0.193c0.4,0.086,0.698,0.203,0.894,0.35
			s0.293,0.345,0.293,0.593c0,0.281-0.114,0.509-0.341,0.683c-0.229,0.174-0.525,0.261-0.893,0.261
			c-0.404,0-0.723-0.103-0.955-0.308s-0.343-0.444-0.331-0.718l0.006-0.018h0.551c0.01,0.204,0.086,0.353,0.229,0.447
			c0.143,0.095,0.31,0.142,0.501,0.142c0.205,0,0.365-0.042,0.482-0.125C170.438,13.153,170.497,13.044,170.497,12.91z"/>
	</g>
</g>
<g id="Layer_5">
	<rect x="54.25" y="17.855" transform="matrix(0.6441 -0.7649 0.7649 0.6441 -9.1493 55.6695)" width="2" height="39.624"/>
	<rect x="91.563" y="41.273" transform="matrix(0.7421 -0.6703 0.6703 0.7421 -26.3751 81.3808)" width="2" height="67.382"/>
	<rect x="121.298" y="97.465" transform="matrix(0.8603 -0.5097 0.5097 0.8603 -40.1859 78.0333)" width="2" height="29.762"/>
	<rect x="136.3" y="122.848" transform="matrix(0.8574 -0.5146 0.5146 0.8574 -51.1934 90.2688)" width="2" height="29.338"/>
	<g>
		<path d="M56.572,183.762h-2.766v-0.398l1.397-1.551c0.25-0.279,0.419-0.5,0.508-0.664s0.133-0.332,0.133-0.504
			c0-0.213-0.062-0.393-0.186-0.537c-0.124-0.146-0.289-0.219-0.494-0.219c-0.295,0-0.512,0.076-0.652,0.227
			c-0.14,0.152-0.209,0.363-0.209,0.637h-0.554l-0.006-0.018c-0.01-0.367,0.112-0.676,0.366-0.926s0.605-0.375,1.055-0.375
			c0.383,0,0.688,0.113,0.916,0.336c0.228,0.225,0.341,0.508,0.341,0.854c0,0.232-0.069,0.467-0.207,0.699
			c-0.138,0.234-0.331,0.484-0.579,0.752l-1.122,1.219l0.006,0.014h2.051V183.762z"/>
	</g>
	<g>
		<path d="M86.112,182.326h0.589v0.453h-0.589v0.982h-0.574v-0.982h-1.916v-0.324l1.881-2.959h0.609V182.326z M84.237,182.326h1.301
			v-2.002l-0.018-0.002l-0.056,0.146L84.237,182.326z"/>
	</g>
	<g>
		<path d="M115.438,179.434c0.146,0,0.292,0.018,0.435,0.051c0.145,0.033,0.263,0.074,0.356,0.125l-0.123,0.443
			c-0.096-0.049-0.196-0.088-0.3-0.119c-0.105-0.029-0.228-0.045-0.368-0.045c-0.305,0-0.55,0.121-0.737,0.365
			c-0.186,0.244-0.279,0.563-0.279,0.955v0.068c0.125-0.109,0.268-0.195,0.43-0.256c0.16-0.063,0.334-0.094,0.52-0.094
			c0.381,0,0.685,0.133,0.911,0.396s0.34,0.598,0.34,1.002c0,0.441-0.12,0.801-0.362,1.08c-0.24,0.277-0.563,0.416-0.965,0.416
			c-0.418,0-0.764-0.15-1.037-0.453s-0.41-0.73-0.41-1.281v-0.814c0-0.547,0.152-0.99,0.457-1.33S114.987,179.434,115.438,179.434z
			 M115.242,181.359c-0.197,0-0.365,0.039-0.504,0.119s-0.244,0.188-0.316,0.318v0.346c0,0.393,0.083,0.695,0.249,0.906
			c0.166,0.213,0.374,0.32,0.624,0.32c0.236,0,0.42-0.1,0.553-0.301c0.131-0.199,0.197-0.447,0.197-0.744
			c0-0.281-0.07-0.512-0.213-0.693C115.691,181.449,115.494,181.359,115.242,181.359z"/>
	</g>
	<g>
		<path d="M146.42,180.609c0,0.223-0.063,0.418-0.188,0.584c-0.125,0.168-0.294,0.291-0.507,0.373
			c0.246,0.086,0.442,0.221,0.591,0.404c0.146,0.184,0.221,0.396,0.221,0.637c0,0.395-0.129,0.695-0.385,0.904
			c-0.258,0.207-0.591,0.311-1.001,0.311c-0.418,0-0.755-0.104-1.009-0.311c-0.256-0.209-0.383-0.51-0.383-0.904
			c0-0.24,0.072-0.453,0.217-0.637s0.34-0.318,0.586-0.404c-0.213-0.082-0.38-0.205-0.501-0.373
			c-0.121-0.166-0.182-0.361-0.182-0.584c0-0.375,0.116-0.664,0.347-0.869c0.232-0.203,0.538-0.307,0.919-0.307
			c0.375,0,0.681,0.104,0.919,0.307C146.301,179.945,146.42,180.234,146.42,180.609z M145.963,182.594
			c0-0.234-0.077-0.426-0.231-0.576s-0.35-0.225-0.586-0.225c-0.24,0-0.435,0.074-0.585,0.225c-0.148,0.15-0.224,0.342-0.224,0.576
			c0,0.242,0.074,0.432,0.223,0.568c0.148,0.139,0.346,0.207,0.592,0.207c0.24,0,0.436-0.07,0.586-0.209
			C145.888,183.023,145.963,182.834,145.963,182.594z M145.843,180.621c0-0.211-0.065-0.387-0.198-0.525
			c-0.131-0.139-0.298-0.207-0.499-0.207c-0.205,0-0.371,0.066-0.498,0.201c-0.127,0.133-0.19,0.311-0.19,0.531
			c0,0.217,0.063,0.391,0.191,0.521s0.296,0.195,0.503,0.195c0.203,0,0.369-0.064,0.498-0.195S145.843,180.838,145.843,180.621z"/>
	</g>
	<g>
		<path d="M16.059,24.361h0.504c0.256,0,0.437-0.064,0.543-0.192s0.16-0.306,0.16-0.535c0-0.244-0.061-0.43-0.182-0.557
			s-0.3-0.19-0.536-0.19c-0.225,0-0.405,0.066-0.541,0.198s-0.204,0.307-0.204,0.526H15.25l-0.006-0.018
			c-0.01-0.322,0.107-0.596,0.35-0.822s0.561-0.338,0.954-0.338c0.395,0,0.709,0.105,0.943,0.315s0.352,0.509,0.352,0.898
			c0,0.176-0.053,0.351-0.16,0.526s-0.266,0.308-0.479,0.4c0.256,0.084,0.437,0.216,0.543,0.396s0.16,0.381,0.16,0.604
			c0,0.389-0.127,0.694-0.382,0.917s-0.581,0.334-0.977,0.334c-0.389,0-0.71-0.105-0.965-0.315s-0.377-0.495-0.368-0.854
			l0.009-0.018h0.551c0,0.224,0.069,0.402,0.207,0.534s0.327,0.198,0.567,0.198c0.244,0,0.436-0.066,0.574-0.198
			s0.208-0.328,0.208-0.587c0-0.263-0.062-0.456-0.185-0.581s-0.317-0.187-0.583-0.187h-0.504V24.361z"/>
		<path d="M21.347,25.135c0,0.545-0.121,0.962-0.362,1.252s-0.572,0.435-0.992,0.435s-0.752-0.146-0.996-0.437
			s-0.366-0.708-0.366-1.251v-1.011c0-0.543,0.122-0.96,0.365-1.252s0.574-0.438,0.992-0.438c0.42,0,0.751,0.146,0.995,0.438
			s0.365,0.709,0.365,1.252V25.135z M20.77,24c0-0.369-0.067-0.646-0.201-0.833c-0.134-0.187-0.328-0.28-0.582-0.28
			s-0.447,0.093-0.58,0.28c-0.133,0.186-0.199,0.464-0.199,0.833v1.25c0,0.369,0.067,0.647,0.202,0.835
			c0.135,0.188,0.329,0.283,0.583,0.283s0.447-0.094,0.579-0.281c0.132-0.187,0.198-0.466,0.198-0.837V24z"/>
	</g>
	<g>
		<path d="M18.033,51.761h-2.766v-0.398l1.397-1.55c0.25-0.279,0.419-0.501,0.508-0.665s0.133-0.332,0.133-0.504
			c0-0.213-0.062-0.392-0.186-0.538s-0.289-0.218-0.494-0.218c-0.295,0-0.512,0.076-0.652,0.227s-0.209,0.364-0.209,0.637h-0.554
			l-0.006-0.018c-0.01-0.367,0.112-0.676,0.366-0.926s0.605-0.375,1.055-0.375c0.383,0,0.688,0.112,0.916,0.335
			s0.341,0.508,0.341,0.854c0,0.232-0.069,0.465-0.207,0.699s-0.331,0.484-0.579,0.751l-1.122,1.219l0.006,0.015h2.051V51.761z"/>
		<path d="M18.813,49.836l0.246-2.341h2.136v0.513h-1.646l-0.141,1.198c0.09-0.066,0.19-0.122,0.3-0.166s0.238-0.068,0.382-0.072
			c0.393-0.004,0.702,0.124,0.927,0.384s0.338,0.609,0.338,1.049c0,0.428-0.115,0.771-0.344,1.031s-0.564,0.39-1.003,0.39
			c-0.361,0-0.662-0.099-0.902-0.296s-0.355-0.487-0.346-0.87l0.006-0.018h0.521c0,0.231,0.067,0.411,0.201,0.539
			s0.307,0.191,0.52,0.191c0.244,0,0.434-0.086,0.568-0.257c0.135-0.172,0.202-0.407,0.202-0.705c0-0.273-0.068-0.497-0.205-0.673
			c-0.137-0.175-0.325-0.263-0.565-0.263c-0.227,0-0.391,0.034-0.492,0.103s-0.176,0.173-0.223,0.313L18.813,49.836z"/>
	</g>
	<g>
		<path d="M18.033,76.761h-2.766v-0.398l1.397-1.55c0.25-0.279,0.419-0.501,0.508-0.665s0.133-0.332,0.133-0.504
			c0-0.213-0.062-0.392-0.186-0.538s-0.289-0.218-0.494-0.218c-0.295,0-0.512,0.076-0.652,0.227s-0.209,0.364-0.209,0.637h-0.554
			l-0.006-0.018c-0.01-0.367,0.112-0.676,0.366-0.926s0.605-0.375,1.055-0.375c0.383,0,0.688,0.112,0.916,0.335
			s0.341,0.508,0.341,0.854c0,0.232-0.069,0.465-0.207,0.699s-0.331,0.484-0.579,0.751l-1.122,1.219l0.006,0.015h2.051V76.761z"/>
		<path d="M21.347,75.135c0,0.545-0.121,0.962-0.362,1.252s-0.572,0.435-0.992,0.435s-0.752-0.146-0.996-0.437
			s-0.366-0.708-0.366-1.251v-1.011c0-0.543,0.122-0.96,0.365-1.252s0.574-0.438,0.992-0.438c0.42,0,0.751,0.146,0.995,0.438
			s0.365,0.709,0.365,1.252V75.135z M20.77,74c0-0.369-0.067-0.646-0.201-0.833c-0.134-0.187-0.328-0.28-0.582-0.28
			s-0.447,0.093-0.58,0.28c-0.133,0.186-0.199,0.464-0.199,0.833v1.25c0,0.369,0.067,0.647,0.202,0.835
			c0.135,0.188,0.329,0.283,0.583,0.283s0.447-0.094,0.579-0.281c0.132-0.187,0.198-0.466,0.198-0.837V74z"/>
	</g>
	<g>
		<path d="M16.917,101.761H16.34v-3.703l-0.873,0.012v-0.416l1.45-0.158V101.761z"/>
		<path d="M18.813,99.836l0.246-2.341h2.136v0.513h-1.646l-0.141,1.198c0.09-0.066,0.19-0.122,0.3-0.166s0.238-0.068,0.382-0.072
			c0.393-0.004,0.702,0.124,0.927,0.384s0.338,0.609,0.338,1.049c0,0.428-0.115,0.771-0.344,1.031s-0.564,0.39-1.003,0.39
			c-0.361,0-0.662-0.099-0.902-0.296s-0.355-0.487-0.346-0.87l0.006-0.018h0.521c0,0.231,0.067,0.411,0.201,0.539
			c0.134,0.127,0.307,0.19,0.52,0.19c0.244,0,0.434-0.086,0.568-0.257c0.135-0.172,0.202-0.407,0.202-0.706
			c0-0.273-0.068-0.497-0.205-0.673c-0.137-0.175-0.325-0.263-0.565-0.263c-0.227,0-0.391,0.034-0.492,0.103
			s-0.176,0.173-0.223,0.313L18.813,99.836z"/>
	</g>
	<g>
		<path d="M16.917,126.761H16.34v-3.703l-0.873,0.012v-0.416l1.45-0.158V126.761z"/>
		<path d="M21.347,125.135c0,0.545-0.121,0.963-0.362,1.252c-0.241,0.291-0.572,0.436-0.992,0.436s-0.752-0.146-0.996-0.437
			s-0.366-0.708-0.366-1.251v-1.011c0-0.543,0.122-0.96,0.365-1.253c0.243-0.291,0.574-0.438,0.992-0.438
			c0.42,0,0.751,0.146,0.995,0.438c0.243,0.293,0.365,0.71,0.365,1.253V125.135z M20.77,124c0-0.369-0.067-0.646-0.201-0.832
			c-0.134-0.188-0.328-0.28-0.582-0.28s-0.447,0.093-0.58,0.28c-0.133,0.186-0.199,0.463-0.199,0.832v1.25
			c0,0.369,0.067,0.647,0.202,0.836c0.135,0.188,0.329,0.282,0.583,0.282s0.447-0.094,0.579-0.281
			c0.132-0.187,0.198-0.466,0.198-0.837V124z"/>
	</g>
	<g>
		<path d="M16.974,149.836l0.246-2.34h2.136v0.512h-1.646l-0.141,1.199c0.09-0.066,0.19-0.121,0.3-0.166
			c0.11-0.043,0.238-0.068,0.382-0.072c0.393-0.004,0.702,0.125,0.927,0.385s0.338,0.609,0.338,1.049
			c0,0.428-0.115,0.771-0.344,1.031s-0.564,0.389-1.003,0.389c-0.361,0-0.662-0.098-0.902-0.295s-0.355-0.488-0.346-0.871
			l0.006-0.018h0.521c0,0.232,0.067,0.412,0.201,0.539s0.307,0.191,0.52,0.191c0.244,0,0.434-0.086,0.568-0.258
			s0.202-0.406,0.202-0.705c0-0.273-0.068-0.498-0.205-0.672c-0.137-0.176-0.325-0.264-0.565-0.264
			c-0.227,0-0.391,0.033-0.492,0.102s-0.176,0.174-0.223,0.314L16.974,149.836z"/>
	</g>
	<g>
		<path d="M19.508,182.135c0,0.545-0.121,0.963-0.362,1.254c-0.241,0.289-0.572,0.434-0.992,0.434s-0.752-0.145-0.996-0.436
			s-0.366-0.709-0.366-1.252v-1.01c0-0.543,0.122-0.961,0.365-1.252c0.243-0.293,0.574-0.439,0.992-0.439
			c0.42,0,0.751,0.146,0.995,0.439c0.243,0.291,0.365,0.709,0.365,1.252V182.135z M18.931,181c0-0.369-0.067-0.646-0.201-0.832
			c-0.134-0.188-0.328-0.279-0.582-0.279s-0.447,0.092-0.58,0.279c-0.133,0.186-0.199,0.463-0.199,0.832v1.25
			c0,0.369,0.067,0.648,0.202,0.836c0.135,0.189,0.329,0.283,0.583,0.283s0.447-0.094,0.579-0.281s0.198-0.467,0.198-0.838V181z"/>
	</g>
	<g>
	</g>
	<g>
	</g>
	<g>
	</g>
	<g>
	</g>
	<g>
	</g>
	<g>
	</g>
	<g>
	</g>
	<g>
	</g>
	<g>
	</g>
	<g>
	</g>
	<g>
	</g>
	<g>
	</g>
	<g>
	</g>
	<g>
	</g>
	<g>
	</g>
</g>
</svg>
